<svg width="578" height="124" viewBox="0 0 578 124" fill="none" xmlns="http://www.w3.org/2000/svg">
<path d="M354.03 59.5694C354.03 64.7694 352.58 69.5694 349.67 73.9694C346.76 78.3694 341.96 81.7194 335.27 84.0094L350.6 123.519H321.13L308.96 85.2094H308.41L300.25 123.519H271.71L289.55 39.6094H324.3C328.35 39.6094 332.18 39.8694 335.8 40.3994C339.41 40.8394 342.54 41.8094 345.18 43.3094C347.91 44.7194 350.07 46.7494 351.65 49.3894C353.24 51.9494 354.03 55.3394 354.03 59.5694ZM316.68 75.1693C318.97 75.1693 320.91 74.4193 322.49 72.9193C324.16 71.3293 325.49 69.4393 326.45 67.2393C327.51 65.0393 328.26 62.6993 328.7 60.2393C329.14 57.6793 329.36 55.4794 329.36 53.6294C329.36 51.3394 328.96 49.3994 328.17 47.8194C327.38 46.1494 325.66 45.3094 323.02 45.3094H317.07L310.46 75.1693H316.68Z" fill="white"/>
<path d="M449.98 123.519H419.06L417.21 102.509H392.76L383.38 123.519H370.56L409.54 39.6094H440.86L449.98 123.519ZM397.13 92.8694H416.29L413.25 56.9294L397.13 92.8694Z" fill="white"/>
<path d="M486.04 123.52H459.22L471.24 66.6999H498.33L486.04 123.52ZM501.77 49.3899C501.77 51.4199 501.33 53.1798 500.45 54.6798C499.66 56.1798 498.56 57.4499 497.15 58.5099C495.83 59.5699 494.29 60.3599 492.53 60.8899C490.77 61.4199 488.96 61.6798 487.11 61.6798C483.59 61.6798 480.64 60.8399 478.26 59.1699C475.88 57.4999 474.69 54.8498 474.69 51.2398C474.69 49.2998 475.09 47.5798 475.88 46.0898C476.67 44.4998 477.73 43.2299 479.05 42.2599C480.46 41.1999 482.04 40.4099 483.81 39.8799C485.66 39.3499 487.55 39.0898 489.49 39.0898C492.93 39.0898 495.83 39.9299 498.21 41.5999C500.58 43.2699 501.77 45.8699 501.77 49.3899Z" fill="white"/>
<path d="M577.52 59.5694C577.52 64.7694 576.07 69.5694 573.16 73.9694C570.25 78.3694 565.45 81.7194 558.76 84.0094L574.09 123.519H544.62L532.99 86.9193H531.54L523.74 123.519H495.2L513.04 39.6094H547.79C551.84 39.6094 555.67 39.8694 559.29 40.3994C562.9 40.8394 566.03 41.8094 568.67 43.3094C571.4 44.7194 573.56 46.7494 575.14 49.3894C576.73 51.9494 577.52 55.3394 577.52 59.5694ZM539.47 78.4594C541.76 78.4594 543.7 77.7094 545.28 76.2094C546.95 74.6194 548.28 72.7294 549.24 70.5294C550.3 68.3294 551.05 65.9894 551.49 63.5294C551.93 60.9694 552.15 58.7694 552.15 56.9194C552.15 54.6294 551.75 52.6894 550.96 51.1094C550.17 49.4394 548.45 48.5994 545.81 48.5994H539.86L533.25 78.4594H539.47Z" fill="white"/>
<path d="M283.53 39.6504L280.94 51.7504H228.57C221.92 51.7504 216.47 46.3104 216.47 39.6504H283.53Z" fill="white"/>
<path d="M234.98 109.259L234.55 111.249H267.04L264.62 123.519H197.65L202.58 100.619L202.67 99.9293C206.99 80.1393 224.62 65.2793 245.79 65.2793H271.71L269.12 77.1993H241.9L234.98 109.259Z" fill="white"/>
<path d="M203.43 39.64L200.79 51.75H85.64L67.19 24.58C62.33 17.39 55.33 13.21 47.95 13.21L64.55 51.76H15.25L26.25 0H77.4C82.44 0 87.48 0.430013 92.4 1.17001C97.44 1.85001 101.93 3.20001 105.8 5.29001C109.86 7.32001 113.05 10.27 115.51 14.02C117.97 17.65 119.2 22.38 119.2 28.22C119.2 31.97 118.65 35.35 117.48 38.36C117.3 38.79 117.17 39.22 116.99 39.65H203.43V39.64Z" fill="white"/>
<path d="M191.56 65.2795V65.3395L188.98 77.1995H161.75L154.86 109.229L154.43 111.26H186.89L184.49 123.49H117.54L122.46 100.62L122.52 99.9395C126.82 80.5695 143.73 65.8795 164.39 65.3295C164.82 65.2695 165.25 65.2695 165.68 65.2695H191.56V65.2795Z" fill="white"/>
<path d="M114.78 83.2298C114.78 89.0698 113.55 94.4798 111.09 99.3998C108.57 104.32 104.88 108.62 99.96 112.25C95.16 115.75 89.2 118.52 82.07 120.61C75.06 122.58 66.95 123.5 57.79 123.5H0L12.36 65.3398H63.51L40.33 111.26C47.71 111.26 57.11 107.08 62.09 99.8898C67.25 92.5698 79.8 75.2398 86.99 65.3398H108.94C110.54 67.1198 111.77 69.3999 112.81 72.1599C114.1 75.1799 114.78 78.8598 114.78 83.2298Z" fill="white"/>
</svg>
