<svg width="204" height="124" viewBox="0 0 204 124" fill="none" xmlns="http://www.w3.org/2000/svg">
<path d="M203.43 39.64L200.79 51.75H85.64L67.2 24.58C62.34 17.39 55.34 13.21 47.96 13.21L64.56 51.76H15.26L26.26 0H77.41C82.45 0 87.49 0.429998 92.41 1.17C97.45 1.85 101.94 3.2 105.81 5.29C109.87 7.32 113.06 10.27 115.52 14.02C117.98 17.65 119.21 22.38 119.21 28.22C119.21 31.97 118.66 35.35 117.49 38.36C117.31 38.79 117.18 39.22 117 39.65H203.43V39.64Z" fill="white"/>
<path d="M191.57 65.2698V65.3298L188.99 77.1898H161.76L154.87 109.22L154.44 111.25H186.9L184.5 123.48H117.55L122.47 100.61L122.53 99.9298C126.83 80.5598 143.74 65.8698 164.4 65.3198C164.83 65.2598 165.26 65.2598 165.69 65.2598H191.57V65.2698Z" fill="white"/>
<path d="M114.78 83.2298C114.78 89.0698 113.55 94.4798 111.09 99.3998C108.57 104.32 104.88 108.62 99.96 112.25C95.16 115.75 89.2 118.52 82.07 120.61C75.06 122.58 66.95 123.5 57.79 123.5H0L12.36 65.3398H63.51L40.33 111.26C47.71 111.26 57.11 107.08 62.09 99.8898C67.25 92.5698 79.8 75.2398 86.99 65.3398H108.94C110.54 67.1198 111.77 69.3998 112.81 72.1598C114.11 75.1698 114.78 78.8598 114.78 83.2298Z" fill="white"/>
</svg>
